<svg width="18" height="23" viewBox="0 0 18 23" fill="none" xmlns="http://www.w3.org/2000/svg">
<path fill-rule="evenodd" clip-rule="evenodd" d="M13.4109 1.75204L13.4119 2.57756C16.1665 2.81531 17.9862 4.88241 17.9891 8.05239L18 17.3312C18.0039 20.7874 16.0322 22.9139 12.8718 22.9194L5.15188 22.9304C2.01119 22.9348 0.0148166 20.7577 0.0108673 17.2916L6.64975e-06 8.12174C-0.00394266 4.93084 1.75153 2.86924 4.50617 2.59077L4.50518 1.76525C4.5042 1.28095 4.83001 0.916619 5.26444 0.916619C5.69886 0.915518 6.02468 1.27875 6.02567 1.76305L6.02666 2.53353L11.8914 2.52473L11.8904 1.75424C11.8894 1.26994 12.2152 0.906712 12.6497 0.905612C13.0742 0.904511 13.4099 1.26774 13.4109 1.75204ZM1.52146 8.46185L16.4696 8.43983V8.05459C16.4272 5.68811 15.349 4.44653 13.4138 4.26161L13.4148 5.10914C13.4148 5.58244 13.0801 5.95778 12.6556 5.95778C12.2211 5.95888 11.8943 5.58464 11.8943 5.11134L11.8933 4.21979L6.02862 4.22859L6.0296 5.11905C6.0296 5.59345 5.70477 5.96768 5.27035 5.96768C4.83592 5.96878 4.50912 5.59565 4.50912 5.12125L4.50813 4.27372C2.58284 4.48615 1.51751 5.73213 1.52048 8.11953L1.52146 8.46185ZM12.2399 13.4645V13.4766C12.2498 13.9829 12.625 14.367 13.0801 14.356C13.5244 14.3439 13.8789 13.9246 13.869 13.4183C13.8483 12.9339 13.4918 12.5388 13.0485 12.5399C12.5943 12.5509 12.2389 12.9582 12.2399 13.4645ZM13.0554 18.4066C12.6013 18.3956 12.235 17.9784 12.234 17.4721C12.2241 16.9658 12.5884 16.5464 13.0426 16.5343H13.0525C13.5165 16.5343 13.8927 16.9515 13.8927 17.4688C13.8937 17.9861 13.5185 18.4055 13.0554 18.4066ZM8.17211 13.4821C8.19186 13.9884 8.56803 14.3836 9.0222 14.3615C9.4665 14.3384 9.82095 13.9202 9.80121 13.4138C9.79035 12.9185 9.42503 12.5333 8.98074 12.5344C8.52657 12.5564 8.17113 12.9758 8.17211 13.4821ZM9.02614 18.3571C8.57197 18.3791 8.19678 17.9839 8.17605 17.4776C8.17605 16.9713 8.5305 16.553 8.98467 16.5299C9.42897 16.5288 9.79527 16.914 9.80514 17.4083C9.82587 17.9157 9.47044 18.3339 9.02614 18.3571ZM4.1043 13.5206C4.12405 14.0269 4.50022 14.4232 4.95439 14.4001C5.39869 14.3781 5.75314 13.9587 5.73241 13.4524C5.72253 12.9571 5.35722 12.5718 4.91194 12.5729C4.45777 12.5949 4.10332 13.0143 4.1043 13.5206ZM4.95836 18.3626C4.50419 18.3857 4.12901 17.9894 4.10827 17.4831C4.10728 16.9768 4.46272 16.5574 4.91689 16.5354C5.36119 16.5343 5.72749 16.9196 5.73736 17.4149C5.7581 17.9212 5.40365 18.3405 4.95836 18.3626Z" fill="currentColor"/>
</svg>
