<svg width="16" height="17" viewBox="0 0 16 17" fill="none" xmlns="http://www.w3.org/2000/svg">
<g clip-path="url(#clip0_20725_87)">
<path d="M15.9001 8.79901C15.9001 8.16937 15.8478 7.70989 15.7346 7.23341H8.37695V10.0753H12.6957C12.6087 10.7816 12.1385 11.8451 11.0936 12.5598L11.079 12.655L13.4053 14.4161L13.5665 14.4318C15.0467 13.0959 15.9001 11.1304 15.9001 8.79901Z" fill="#4285F4"/>
<path d="M8.37696 16.2867C10.4928 16.2867 12.2691 15.606 13.5665 14.4318L11.0936 12.5598C10.4319 13.0108 9.54371 13.3256 8.37696 13.3256C6.30464 13.3256 4.54578 11.9898 3.9188 10.1434L3.82689 10.151L1.40792 11.9804L1.37628 12.0664C2.66495 14.5679 5.31197 16.2867 8.37696 16.2867Z" fill="#34A853"/>
<path d="M3.91874 10.1434C3.7533 9.66693 3.65756 9.15636 3.65756 8.62884C3.65756 8.10127 3.7533 7.59076 3.91003 7.11428L3.90565 7.0128L1.45636 5.15402L1.37622 5.19127C0.845103 6.22935 0.540344 7.39508 0.540344 8.62884C0.540344 9.86261 0.845103 11.0283 1.37622 12.0664L3.91874 10.1434Z" fill="#FBBC05"/>
<path d="M8.37696 3.93199C9.84847 3.93199 10.8411 4.55313 11.4071 5.0722L13.6187 2.96202C12.2604 1.72825 10.4928 0.970966 8.37696 0.970966C5.31197 0.970966 2.66495 2.68972 1.37628 5.19128L3.91009 7.11428C4.54578 5.26789 6.30464 3.93199 8.37696 3.93199Z" fill="#EB4335"/>
</g>
<defs>
<clipPath id="clip0_20725_87">
<rect width="15.3686" height="15.3686" fill="white" transform="translate(0.539612 0.970959)"/>
</clipPath>
</defs>
</svg>
