<svg width="20" height="23" viewBox="0 0 20 23" fill="none" xmlns="http://www.w3.org/2000/svg">
<path fill-rule="evenodd" clip-rule="evenodd" d="M18.4023 13.5175C18.76 13.7268 19.036 14.0571 19.2301 14.3875C19.6083 15.0703 19.5776 15.9072 19.2097 16.645L18.4943 17.9665C18.1162 18.6713 17.411 19.1118 16.6855 19.1118C16.3278 19.1118 15.9292 19.0017 15.6022 18.7815C15.3365 18.5942 15.0299 18.5282 14.7029 18.5282C13.6911 18.5282 12.8429 19.4422 12.8122 20.5324C12.8122 21.7989 11.872 22.79 10.6968 22.79H9.30692C8.12145 22.79 7.18125 21.7989 7.18125 20.5324C7.16081 19.4422 6.31259 18.5282 5.30085 18.5282C4.96361 18.5282 4.65702 18.5942 4.40153 18.7815C4.0745 19.0017 3.66572 19.1118 3.31825 19.1118C2.58245 19.1118 1.87729 18.6713 1.49917 17.9665L0.79402 16.645C0.415896 15.9292 0.395456 15.0703 0.773581 14.3875C0.937094 14.0571 1.24368 13.7268 1.59115 13.5175C1.87729 13.3633 2.06125 13.1101 2.23498 12.8127C2.74596 11.8657 2.43937 10.6212 1.57071 10.0596C0.55897 9.43191 0.231943 8.03333 0.814459 6.9431L1.49917 5.64364C2.09191 4.55341 3.35913 4.16797 4.38109 4.80669C5.27019 5.33529 6.425 4.98289 6.9462 4.04684C7.10972 3.73849 7.20169 3.40812 7.18125 3.07774C7.16081 2.64826 7.27323 2.2408 7.4674 1.91043C7.84553 1.22766 8.53024 0.787162 9.27627 0.765137H10.7172C11.4735 0.765137 12.1582 1.22766 12.5363 1.91043C12.7203 2.2408 12.8429 2.64826 12.8122 3.07774C12.7918 3.40812 12.8838 3.73849 13.0473 4.04684C13.5685 4.98289 14.7233 5.33529 15.6226 4.80669C16.6344 4.16797 17.9118 4.55341 18.4943 5.64364L19.179 6.9431C19.7718 8.03333 19.4447 9.43191 18.4228 10.0596C17.5541 10.6212 17.2475 11.8657 17.7687 12.8127C17.9322 13.1101 18.1162 13.3633 18.4023 13.5175ZM7.10974 11.7884C7.10974 13.5173 8.40763 14.8939 10.0121 14.8939C11.6166 14.8939 12.8838 13.5173 12.8838 11.7884C12.8838 10.0594 11.6166 8.67188 10.0121 8.67188C8.40763 8.67188 7.10974 10.0594 7.10974 11.7884Z" fill="currentColor"/>
</svg>
